HIERARCHY
ROOT Hips
{
	OFFSET 0.00000 0.00000 0.00000
	CHANNELS 6 Xposition Yposition Zposition Zrotation Yrotation Xrotation 
	JOINT LHipJoint
	{
		OFFSET 0 0 0
		CHANNELS 3 Zrotation Yrotation Xrotation
		JOINT LeftHip
		{
			OFFSET 1.58895 -1.83665 0.71753
			CHANNELS 3 Zrotation Yrotation Xrotation
			JOINT LeftKnee
			{
				OFFSET 2.50528 -6.88321 0.00000
				CHANNELS 3 Zrotation Yrotation Xrotation
				JOINT LeftAnkle
				{
					OFFSET 2.63244 -7.23257 0.00000
					CHANNELS 3 Zrotation Yrotation Xrotation
					JOINT LeftToe
					{
						OFFSET 0.23691 -0.65090 1.72750
						CHANNELS 3 Zrotation Yrotation Xrotation
						End Site
						{
							OFFSET 0.00000 -0.00000 0.92561
						}
					}
				}
			}
		}
	}
	JOINT RHipJoint
	{
		OFFSET 0 0 0
		CHANNELS 3 Zrotation Yrotation Xrotation
		JOINT RightHip
		{
			OFFSET -1.51435 -1.83665 0.71753
			CHANNELS 3 Zrotation Yrotation Xrotation
			JOINT RightKnee
			{
				OFFSET -2.54551 -6.99375 0.00000
				CHANNELS 3 Zrotation Yrotation Xrotation
				JOINT RightAnkle
				{
					OFFSET -2.66027 -7.30903 0.00000
					CHANNELS 3 Zrotation Yrotation Xrotation
					JOINT RightToe
					{
						OFFSET -0.22981 -0.63138 2.03959
						CHANNELS 3 Zrotation Yrotation Xrotation
						End Site
						{
							OFFSET -0.00000 -0.00000 1.07060
						}
					}
				}
			}
		}
	}
	JOINT lowerback
	{
		OFFSET 0 0 0
		CHANNELS 3 Zrotation Yrotation Xrotation
		JOINT Chest
		{
			OFFSET -0.02651 1.86275 -0.11152
			CHANNELS 3 Zrotation Yrotation Xrotation
			JOINT Chest2
			{
				OFFSET 0.01019 1.86224 0.04087
				CHANNELS 3 Zrotation Yrotation Xrotation
				JOINT lowerneck
				{
					OFFSET 0 0 0
					CHANNELS 3 Zrotation Yrotation Xrotation
					JOINT Neck
					{
						OFFSET -0.01926 1.80512 0.08867
						CHANNELS 3 Zrotation Yrotation Xrotation
						JOINT Head
						{
							OFFSET 0.05516 1.76451 -0.38475
							CHANNELS 3 Zrotation Yrotation Xrotation
							End Site
							{
								OFFSET 0.01592 1.82587 -0.14001
							}
						}
					}
				}
				JOINT LeftCollar
				{
					OFFSET 0 0 0
					CHANNELS 3 Zrotation Yrotation Xrotation
					JOINT LeftShoulder
					{
						OFFSET 3.47116 1.51376 0.14491
CHANNELS 3 Zrotation Xrotation Yrotation
						JOINT LeftElbow
						{
OFFSET 0 -4.780950 0.000000
CHANNELS 3 Zrotation Xrotation Yrotation
							JOINT LeftWrist
							{
OFFSET 0 -3.586150 -0.000000
CHANNELS 3 Zrotation Xrotation Yrotation
								JOINT lhand
								{
									OFFSET 0 0 0
CHANNELS 3 Zrotation Xrotation Yrotation
									JOINT LFingers
									{
OFFSET 0 -0.659810 0.000000
CHANNELS 3 Zrotation Xrotation Yrotation
										End Site
										{
OFFSET 0 -0.531960 0.000000
										}
									}
								}
								JOINT LThumb
								{
OFFSET 0 0.000000 0.000000
CHANNELS 3 Zrotation Xrotation Yrotation
									End Site
									{
OFFSET 0 -0.540080 0.540080
									}
								}
							}
						}
					}
				}
				JOINT RightCollar
				{
					OFFSET 0 0 0
					CHANNELS 3 Zrotation Yrotation Xrotation
					JOINT RightShoulder
					{
						OFFSET -3.31725 1.61216 0.35156
CHANNELS 3 Zrotation Xrotation Yrotation
						JOINT RightElbow
						{
OFFSET 0 -4.489130 0.000000
CHANNELS 3 Zrotation Xrotation Yrotation
							JOINT RightWrist
							{
OFFSET 0 -3.705100 0.000000
CHANNELS 3 Zrotation Xrotation Yrotation
								JOINT rhand
								{
									OFFSET 0 0 0
CHANNELS 3 Zrotation Xrotation Yrotation
									JOINT RFingers
									{
OFFSET 0 -0.449140 0.000000
CHANNELS 3 Zrotation Xrotation Yrotation
										End Site
										{
OFFSET 0 -0.362110 0.000000
										}
									}
								}
								JOINT RThumb
								{
OFFSET 0 0.000000 0.000000
CHANNELS 3 Zrotation Xrotation Yrotation
									End Site
									{
OFFSET 0 -0.367630 0.367630
									}
								}
							}
						}
					}
				}
			}
		}
	}
}
MOTION
Frames: 10
Frame Time: 0.008333333333333333
-1.374999 18.047598 6.115569 -7.734460 13.097262 -2.381183 0.000000 0.000000 0.000000 -6.266864 -2.563533 23.130433 2.268012 -9.403377 -27.065530 -0.403651 13.269328 2.776641 0.955327 -6.224228 -17.436266 0.000000 0.000000 0.000000 24.920933 -12.255037 10.019812 0.000000 0.000000 0.000000 -1.588984 -4.726239 -25.913186 -0.108754 -2.126027 5.854153 3.574468 2.274785 13.063928 -1.592439 3.464648 -1.021734 -4.402534 1.485003 -8.121412 -8.562695 -11.594346 -11.171258 11.152129 -15.216480 4.132670 3.515854 -7.139773 4.559260 0.000000 0.000000 0.000000 28.830385 6.344253 -40.070144 101.161180 -59.523981 69.650410 5.034789 -21.358924 16.922493 0.000000 0.000000 0.000000 -7.125000 0.000000 0.000000 -15.078557 13.403866 -11.589594 0.000000 0.000000 0.000000 -79.240981 -11.669477 5.093780 -46.690708 -51.569856 -23.555971 -29.848940 40.305941 34.066116 0.000000 0.000000 0.000000 7.125000 0.000000 0.000000 4.020625 67.880282 -2.212123
-1.337879 18.057594 6.088021 -7.892630 13.664014 -2.059766 0.000000 0.000000 0.000000 -6.245932 -3.024739 22.651060 2.288127 -9.442041 -27.188107 -0.385387 13.170007 3.030112 0.940453 -6.176351 -17.297142 0.000000 0.000000 0.000000 25.060708 -12.362353 9.483614 0.000000 0.000000 0.000000 -1.596123 -4.866646 -26.040992 -0.110800 -2.145925 5.909091 3.346021 2.377433 13.136808 -1.510829 3.571146 -0.810690 -4.201206 1.557545 -7.942529 -8.583376 -11.675404 -11.190365 11.204242 -15.339848 4.263428 3.515682 -7.195108 4.620422 0.000000 0.000000 0.000000 28.175751 7.086683 -39.887071 100.555918 -59.574529 69.128587 5.064668 -21.291197 16.877481 0.000000 0.000000 0.000000 -7.125000 0.000000 0.000000 -15.061258 13.445887 -11.561423 0.000000 0.000000 0.000000 -77.069832 -10.804454 7.045540 -48.078957 -52.189913 -24.648231 -29.556577 39.298364 33.823733 0.000000 0.000000 0.000000 7.125000 0.000000 0.000000 4.244436 67.541339 -2.302087
-1.298199 18.067623 6.063573 -8.070824 14.173920 -1.745316 0.000000 0.000000 0.000000 -6.196124 -3.395507 22.158470 2.303207 -9.470986 -27.280067 -0.368811 13.077420 3.253623 0.871697 -5.952493 -16.646715 0.000000 0.000000 0.000000 25.212542 -12.418213 8.977251 0.000000 0.000000 0.000000 -1.613153 -4.959440 -26.214107 -0.115377 -2.189611 6.030021 3.200552 2.513760 13.155840 -1.432092 3.733130 -0.560050 -4.055099 1.656059 -7.682176 -8.749132 -11.826194 -11.248588 11.408113 -15.541772 4.308213 3.571752 -7.283885 4.693807 0.000000 0.000000 0.000000 27.610824 7.680663 -39.792658 99.807639 -59.633114 68.483173 5.318907 -21.205131 16.655150 0.000000 0.000000 0.000000 -7.125000 0.000000 0.000000 -14.905592 13.646945 -11.367579 0.000000 0.000000 0.000000 -75.017442 -10.070404 8.880921 -49.151365 -52.646425 -25.498243 -28.902340 38.152647 33.272578 0.000000 0.000000 0.000000 7.125000 0.000000 0.000000 4.732950 66.776656 -2.484519
-1.256308 18.077787 6.038560 -8.238778 14.665503 -1.404198 0.000000 0.000000 0.000000 -6.167540 -3.805439 21.652010 2.312355 -9.488498 -27.335672 -0.354624 13.006844 3.455925 0.835068 -5.829539 -16.290540 0.000000 0.000000 0.000000 25.352960 -12.443164 8.454037 0.000000 0.000000 0.000000 -1.628143 -5.092909 -26.394317 -0.118345 -2.217587 6.107392 3.086154 2.688217 13.167732 -1.318441 3.953412 -0.339079 -3.900822 1.780525 -7.447036 -9.086638 -12.029061 -11.092045 11.632850 -15.789032 4.160347 3.669120 -7.408803 4.693602 0.000000 0.000000 0.000000 27.009495 8.233496 -39.800270 99.126137 -59.682738 67.895002 5.632499 -21.114495 16.286242 0.000000 0.000000 0.000000 -7.125000 0.000000 0.000000 -14.717346 13.986961 -11.103504 0.000000 0.000000 0.000000 -73.192860 -9.294804 10.810575 -50.178872 -53.066039 -26.317431 -28.334585 37.259537 32.900255 0.000000 0.000000 0.000000 7.125000 0.000000 0.000000 5.223446 66.225411 -2.677496
-1.212981 18.087469 6.014005 -8.344460 15.155605 -1.022779 0.000000 0.000000 0.000000 -6.209594 -4.261939 21.134412 2.317884 -9.499026 -27.369092 -0.340147 12.926601 3.647246 0.819664 -5.776694 -16.137938 0.000000 0.000000 0.000000 25.436992 -12.455914 7.915439 0.000000 0.000000 0.000000 -1.635455 -5.286033 -26.552208 -0.113900 -2.175903 5.992123 2.880675 2.849176 13.182565 -1.218318 4.140872 -0.147637 -3.705076 1.889676 -7.255706 -9.294393 -12.189821 -10.846077 11.802384 -15.988782 3.899711 3.744826 -7.517290 4.625713 0.000000 0.000000 0.000000 26.497009 8.839188 -39.723684 98.638326 -59.716037 67.473886 5.717267 -21.088086 16.059276 0.000000 0.000000 0.000000 -7.125000 0.000000 0.000000 -14.672008 14.202509 -10.997196 0.000000 0.000000 0.000000 -71.585283 -8.662612 12.899992 -51.211493 -53.471244 -27.145008 -28.037833 36.649320 32.874724 0.000000 0.000000 0.000000 7.125000 0.000000 0.000000 5.592410 66.112597 -2.852175
-1.168466 18.096296 5.991173 -8.381738 15.637383 -0.600310 0.000000 0.000000 0.000000 -6.311084 -4.645939 20.569633 2.324740 -9.512101 -27.410686 -0.319452 12.798933 3.900227 0.785669 -5.658205 -15.796012 0.000000 0.000000 0.000000 25.454662 -12.449699 7.361385 0.000000 0.000000 0.000000 -1.645496 -5.447406 -26.713182 -0.113319 -2.170482 5.977170 2.596319 3.030713 13.226924 -1.137876 4.343171 -0.000197 -3.493073 2.005128 -7.133712 -9.491509 -12.368074 -10.637156 12.032266 -16.223212 3.692941 3.829173 -7.637180 4.589805 0.000000 0.000000 0.000000 26.079601 9.453234 -39.724597 98.271353 -59.739832 67.156938 5.693925 -21.054409 16.040816 0.000000 0.000000 0.000000 -7.125000 0.000000 0.000000 -14.688183 14.221731 -11.003943 0.000000 0.000000 0.000000 -70.004140 -8.072990 14.857319 -52.222496 -53.851777 -27.959509 -27.467603 35.863280 32.721682 0.000000 0.000000 0.000000 7.125000 0.000000 0.000000 6.220917 65.790504 -3.126325
-1.122374 18.104958 5.969047 -8.410676 16.117320 -0.179162 0.000000 0.000000 0.000000 -6.422376 -5.016778 20.024297 2.335878 -9.533279 -27.478134 -0.299991 12.707740 4.173071 0.758104 -5.560770 -15.515206 0.000000 0.000000 0.000000 25.456081 -12.443737 6.816577 0.000000 0.000000 0.000000 -1.659184 -5.598286 -26.894542 -0.110141 -2.139380 5.891070 2.322054 3.233667 13.332452 -1.055440 4.577188 0.093438 -3.297908 2.131803 -7.103651 -9.793879 -12.592531 -10.432899 12.357915 -16.523978 3.564759 3.945828 -7.784798 4.604552 0.000000 0.000000 0.000000 25.678100 10.037413 -39.869064 97.925468 -59.761246 66.858140 5.687462 -20.982863 15.960895 0.000000 0.000000 0.000000 -7.125000 0.000000 0.000000 -14.696128 14.299651 -10.985031 0.000000 0.000000 0.000000 -68.429170 -7.439031 16.703087 -53.322554 -54.248620 -28.850181 -26.705069 34.727242 32.554958 0.000000 0.000000 0.000000 7.125000 0.000000 0.000000 7.075470 65.400973 -3.495052
-1.075322 18.113026 5.947484 -8.492708 16.632768 0.196655 0.000000 0.000000 0.000000 -6.485976 -5.405967 19.526916 2.351536 -9.562821 -27.572269 -0.281912 12.647744 4.452037 0.752974 -5.542325 -15.462096 0.000000 0.000000 0.000000 25.501133 -12.485790 6.293973 0.000000 0.000000 0.000000 -1.675802 -5.738669 -27.090411 -0.104500 -2.084438 5.739066 2.136910 3.418436 13.507108 -0.961985 4.802776 0.160185 -3.146811 2.248982 -7.138156 -10.139018 -12.831120 -10.164797 12.752035 -16.849724 3.415300 4.089057 -7.945524 4.617494 0.000000 0.000000 0.000000 25.307424 10.593126 -40.070771 97.569244 -59.782277 66.550366 5.629307 -21.013949 15.818174 0.000000 0.000000 0.000000 -7.125000 0.000000 0.000000 -14.740953 14.441344 -10.974919 0.000000 0.000000 0.000000 -66.903924 -6.844827 18.471303 -54.495912 -54.653141 -29.804951 -25.893534 33.216508 32.460245 0.000000 0.000000 0.000000 7.125000 0.000000 0.000000 8.025085 65.074800 -3.905095
-1.027673 18.120197 5.926377 -8.553289 17.189551 0.546431 0.000000 0.000000 0.000000 -6.564485 -5.663640 19.011569 2.372579 -9.602456 -27.698688 -0.253728 12.485632 4.796754 0.734856 -5.476441 -15.272700 0.000000 0.000000 0.000000 25.516507 -12.581652 5.793854 0.000000 0.000000 0.000000 -1.696231 -5.823729 -27.281340 -0.116633 -2.199395 6.057138 2.000158 3.592173 13.727191 -0.876803 5.020913 0.222528 -3.034956 2.359742 -7.200420 -10.500157 -13.068970 -9.821229 13.169565 -17.174200 3.181841 4.247634 -8.110450 4.598741 0.000000 0.000000 0.000000 24.984049 11.092078 -40.292195 97.076229 -59.809669 66.124264 5.748505 -21.024145 15.799795 0.000000 0.000000 0.000000 -7.125000 0.000000 0.000000 -14.663400 14.452694 -10.909390 0.000000 0.000000 0.000000 -65.495645 -6.255737 20.068294 -55.725103 -55.056441 -30.810114 -24.782445 30.907124 32.121706 0.000000 0.000000 0.000000 7.125000 0.000000 0.000000 9.148316 64.423536 -4.314482
-0.978233 18.126354 5.905367 -8.583280 17.758810 0.878860 0.000000 0.000000 0.000000 -6.667109 -5.743405 18.470924 2.398449 -9.650828 -27.853370 -0.211441 12.201729 5.262710 0.724709 -5.439535 -15.166519 0.000000 0.000000 0.000000 25.492435 -12.702899 5.322508 0.000000 0.000000 0.000000 -1.709257 -5.948796 -27.443066 -0.133388 -2.353870 6.484753 1.871103 3.750706 13.926037 -0.772774 5.220462 0.305893 -2.902409 2.462402 -7.231866 -10.799586 -13.277955 -9.562170 13.447145 -17.450453 2.983243 4.356167 -8.253158 4.581358 0.000000 0.000000 0.000000 24.617519 11.548363 -40.459989 96.510357 -59.839009 65.635044 6.245138 -20.930933 15.776187 0.000000 0.000000 0.000000 -7.125000 0.000000 0.000000 -14.337182 14.448077 -10.651729 0.000000 0.000000 0.000000 -64.300434 -5.767824 21.512924 -57.027298 -55.461937 -31.880188 -23.153672 27.268030 31.677534 0.000000 0.000000 0.000000 7.125000 0.000000 0.000000 10.780066 63.535884 -4.866701
